# xmcd
#
# Track frame offsets:
#	182
#	23155
#	42480
#	66622
#	86222
#	98497
#	112030
#	123447
#	136555
#	151725
#	174665
#
# Disc length: 2503 seconds
#
# Revision: 3
# Processed by: cddbd v1.5.1PL0 Copyright (c) Steve Scherf et al.
# Submitted via: EasyCDDAExtractor 5.1.0
#
DISCID=8f09c50b
DTITLE=Various Artist - Le monde du Blues
DYEAR=1997
DGENRE=Blues
TTITLE0=Muddy Waters - Screamin' And Cryin'
TTITLE1=Willie Dixon - The Seventh Son
TTITLE2=Stevie Ray Vaughan - Texas Flood
TTITLE3=Son House - Death Letter
TTITLE4=Big Bill Broonzy - Merry Go Round Blues
TTITLE5=Eddie Boyd - She's Real
TTITLE6=Bukka White - Give Me An OId, Old Lady
TTITLE7=Johnny Shines - Baby Don't You Think I Know
TTITLE8=Champion Jack Dupree - Blues Before Sunrise
TTITLE9=Johnny Winter - It Was Rainin'
TTITLE10=Taj Mahal - Everybody's Got To Change Sometime
EXTD=
EXTT0=Muddy Waters
EXTT1=Willie Dixon
EXTT2=Stevie Ray Vaughan
EXTT3=Son House
EXTT4=Big Bill Broonzy
EXTT5=Eddie Boyd
EXTT6=Bukka White
EXTT7=Johnny Shines\n
EXTT8=Champion Jack Dupree
EXTT9=Johnny Winter
EXTT10=Taj Mahal
PLAYORDER=
